<svg width="150" height="64" viewBox="0 0 150 64" fill="none" xmlns="http://www.w3.org/2000/svg">
<rect width="149.542" height="64" rx="8" fill="#F0F0F0"/>
<path d="M16 20.6421L32.0584 15.0015L48.5408 20.545L45.8755 41.47L32.0584 49.0003L18.4649 41.5785L16 20.6421Z" fill="#E23237"/>
<path d="M48.5408 20.5435L32.0583 15V49L45.8766 41.4685L48.5408 20.5435Z" fill="#B52E31"/>
<path d="M31.9333 19.2614L21.9231 41.1809L25.6581 41.1079L27.6745 36.1524H36.6128L38.8147 41.157L42.3747 41.23L31.9426 19.25L31.9333 19.2614ZM31.9565 26.3019L35.3427 33.2693H28.9922L31.9565 26.3042V26.3019Z" fill="white"/>
<path d="M69.362 35.246H63.998L63.026 38H60.83L65.51 25.49H67.868L72.53 38H70.334L69.362 35.246ZM68.786 33.662L66.68 27.722L64.574 33.662H68.786ZM79.5975 27.92C80.7495 27.92 81.6735 28.292 82.3695 29.036C83.0655 29.78 83.4135 30.842 83.4135 32.222V38H81.3615V32.438C81.3615 31.55 81.1335 30.866 80.6775 30.386C80.2215 29.894 79.5975 29.648 78.8055 29.648C77.9895 29.648 77.3355 29.912 76.8435 30.44C76.3515 30.956 76.1055 31.718 76.1055 32.726V38H74.0535V28.082H76.1055V30.26C76.3695 29.516 76.8135 28.94 77.4375 28.532C78.0615 28.124 78.7815 27.92 79.5975 27.92ZM89.7913 27.956C90.6913 27.956 91.4593 28.178 92.0953 28.622C92.7313 29.066 93.1813 29.654 93.4453 30.386V28.082H95.4973V38.108C95.4973 39.032 95.3053 39.848 94.9213 40.556C94.5493 41.276 94.0093 41.84 93.3013 42.248C92.5933 42.656 91.7533 42.86 90.7813 42.86C89.3893 42.86 88.2613 42.53 87.3973 41.87C86.5453 41.21 86.0113 40.316 85.7953 39.188H87.8293C87.9973 39.776 88.3213 40.232 88.8013 40.556C89.2813 40.892 89.8933 41.06 90.6373 41.06C91.4533 41.06 92.1253 40.808 92.6533 40.304C93.1813 39.8 93.4453 39.068 93.4453 38.108V35.696C93.1813 36.428 92.7313 37.016 92.0953 37.46C91.4593 37.904 90.6913 38.126 89.7913 38.126C88.9273 38.126 88.1533 37.922 87.4693 37.514C86.7973 37.106 86.2693 36.518 85.8853 35.75C85.5013 34.982 85.3093 34.076 85.3093 33.032C85.3093 32 85.5013 31.1 85.8853 30.332C86.2693 29.564 86.7973 28.976 87.4693 28.568C88.1533 28.16 88.9273 27.956 89.7913 27.956ZM90.4213 29.756C89.5093 29.756 88.7773 30.05 88.2253 30.638C87.6853 31.214 87.4153 32.012 87.4153 33.032C87.4153 34.052 87.6853 34.856 88.2253 35.444C88.7773 36.02 89.5093 36.308 90.4213 36.308C90.9973 36.308 91.5133 36.176 91.9693 35.912C92.4253 35.636 92.7853 35.252 93.0493 34.76C93.3133 34.268 93.4453 33.692 93.4453 33.032C93.4453 32.384 93.3133 31.814 93.0493 31.322C92.7853 30.818 92.4253 30.434 91.9693 30.17C91.5133 29.894 90.9973 29.756 90.4213 29.756ZM107.104 28.082V38H105.034V35.84C104.782 36.572 104.344 37.142 103.72 37.55C103.096 37.946 102.37 38.144 101.542 38.144C100.39 38.144 99.4658 37.772 98.7698 37.028C98.0738 36.284 97.7258 35.222 97.7258 33.842V28.082H99.7778V33.626C99.7778 34.526 100.006 35.222 100.462 35.714C100.918 36.194 101.542 36.434 102.334 36.434C103.15 36.434 103.804 36.17 104.296 35.642C104.788 35.114 105.034 34.346 105.034 33.338V28.082H107.104ZM111.613 24.68V38H109.561V24.68H111.613ZM118.074 27.956C118.974 27.956 119.742 28.178 120.378 28.622C121.014 29.066 121.464 29.654 121.728 30.386V28.082H123.78V38H121.728V35.696C121.464 36.428 121.014 37.016 120.378 37.46C119.742 37.904 118.974 38.126 118.074 38.126C117.21 38.126 116.436 37.922 115.752 37.514C115.08 37.106 114.552 36.518 114.168 35.75C113.784 34.982 113.592 34.076 113.592 33.032C113.592 32 113.784 31.1 114.168 30.332C114.552 29.564 115.08 28.976 115.752 28.568C116.436 28.16 117.21 27.956 118.074 27.956ZM118.704 29.756C117.792 29.756 117.06 30.05 116.508 30.638C115.968 31.214 115.698 32.012 115.698 33.032C115.698 34.052 115.968 34.856 116.508 35.444C117.06 36.02 117.792 36.308 118.704 36.308C119.28 36.308 119.796 36.176 120.252 35.912C120.708 35.636 121.068 35.252 121.332 34.76C121.596 34.268 121.728 33.692 121.728 33.032C121.728 32.384 121.596 31.814 121.332 31.322C121.068 30.818 120.708 30.434 120.252 30.17C119.796 29.894 119.28 29.756 118.704 29.756ZM128.295 30.026C128.631 29.378 129.111 28.868 129.735 28.496C130.359 28.112 131.079 27.92 131.895 27.92V30.152H131.283C130.383 30.152 129.657 30.374 129.105 30.818C128.565 31.25 128.295 31.97 128.295 32.978V38H126.243V28.082H128.295V30.026Z" fill="#333333"/>
</svg>
