<svg width="227" height="64" viewBox="0 0 227 64" fill="none" xmlns="http://www.w3.org/2000/svg">
<rect width="227" height="64" rx="8" fill="#F0F0F0"/>
<path fill-rule="evenodd" clip-rule="evenodd" d="M42.6944 20.475L36.3345 33.0778L47.5343 45.8467L26.7522 48.1679L59 48.5L42.6944 20.475ZM41.4402 15.5L26.839 27.5226L16 45.5154L25.2265 44.6053L41.4402 15.5Z" fill="#035BDA"/>
<path d="M85.418 25.49V38H83.348V28.622L79.73 38H77.93L74.294 28.622V38H72.242V25.49H74.726L78.866 35.48L82.934 25.49H85.418ZM87.5985 25.202C87.5985 24.854 87.7185 24.566 87.9585 24.338C88.1985 24.11 88.5165 23.996 88.9125 23.996C89.3085 23.996 89.6265 24.11 89.8665 24.338C90.1185 24.566 90.2445 24.854 90.2445 25.202C90.2445 25.55 90.1185 25.832 89.8665 26.048C89.6265 26.264 89.3085 26.372 88.9125 26.372C88.5165 26.372 88.1985 26.264 87.9585 26.048C87.7185 25.832 87.5985 25.55 87.5985 25.202ZM89.9385 28.082V38H87.8865V28.082H89.9385ZM96.8317 27.956C98.1157 27.956 99.1777 28.298 100.018 28.982C100.858 29.654 101.38 30.572 101.584 31.736H99.4057C99.2857 31.112 98.9917 30.626 98.5237 30.278C98.0677 29.918 97.4917 29.738 96.7957 29.738C96.0037 29.738 95.3437 30.02 94.8157 30.584C94.2877 31.136 94.0237 31.952 94.0237 33.032C94.0237 34.112 94.2877 34.934 94.8157 35.498C95.3437 36.062 96.0037 36.344 96.7957 36.344C97.4917 36.344 98.0677 36.164 98.5237 35.804C98.9917 35.444 99.2857 34.952 99.4057 34.328H101.584C101.38 35.492 100.858 36.416 100.018 37.1C99.1777 37.784 98.1157 38.126 96.8317 38.126C95.8717 38.126 95.0197 37.922 94.2757 37.514C93.5437 37.106 92.9677 36.518 92.5477 35.75C92.1277 34.982 91.9177 34.076 91.9177 33.032C91.9177 32 92.1277 31.1 92.5477 30.332C92.9677 29.564 93.5437 28.976 94.2757 28.568C95.0197 28.16 95.8717 27.956 96.8317 27.956ZM105.618 30.026C105.954 29.378 106.434 28.868 107.058 28.496C107.682 28.112 108.402 27.92 109.218 27.92V30.152H108.606C107.706 30.152 106.98 30.374 106.428 30.818C105.888 31.25 105.618 31.97 105.618 32.978V38H103.566V28.082H105.618V30.026ZM115.292 27.956C116.252 27.956 117.116 28.16 117.884 28.568C118.652 28.976 119.252 29.564 119.684 30.332C120.116 31.1 120.332 32 120.332 33.032C120.332 34.076 120.116 34.982 119.684 35.75C119.252 36.518 118.652 37.106 117.884 37.514C117.116 37.922 116.252 38.126 115.292 38.126C114.332 38.126 113.468 37.922 112.7 37.514C111.944 37.106 111.344 36.518 110.9 35.75C110.468 34.97 110.252 34.064 110.252 33.032C110.252 32 110.468 31.1 110.9 30.332C111.344 29.564 111.944 28.976 112.7 28.568C113.468 28.16 114.332 27.956 115.292 27.956ZM115.292 29.738C114.764 29.738 114.278 29.858 113.834 30.098C113.39 30.338 113.03 30.71 112.754 31.214C112.49 31.706 112.358 32.312 112.358 33.032C112.358 33.764 112.49 34.376 112.754 34.868C113.03 35.36 113.39 35.726 113.834 35.966C114.278 36.206 114.764 36.326 115.292 36.326C115.82 36.326 116.306 36.206 116.75 35.966C117.194 35.726 117.548 35.36 117.812 34.868C118.088 34.376 118.226 33.764 118.226 33.032C118.226 32.312 118.088 31.706 117.812 31.214C117.548 30.71 117.194 30.338 116.75 30.098C116.306 29.858 115.82 29.738 115.292 29.738ZM125.562 27.956C126.727 27.956 127.657 28.256 128.353 28.856C129.061 29.444 129.493 30.236 129.649 31.232H127.705C127.621 30.692 127.387 30.26 127.003 29.936C126.631 29.6 126.133 29.432 125.509 29.432C124.993 29.432 124.591 29.558 124.303 29.81C124.027 30.05 123.889 30.38 123.889 30.8C123.889 31.112 123.991 31.364 124.195 31.556C124.399 31.748 124.651 31.898 124.951 32.006C125.263 32.114 125.701 32.234 126.265 32.366C127.009 32.534 127.609 32.708 128.065 32.888C128.533 33.068 128.929 33.356 129.253 33.752C129.589 34.136 129.757 34.664 129.757 35.336C129.757 36.164 129.439 36.836 128.803 37.352C128.179 37.868 127.333 38.126 126.265 38.126C125.029 38.126 124.027 37.838 123.259 37.262C122.503 36.686 122.047 35.882 121.891 34.85H123.889C123.949 35.39 124.189 35.828 124.609 36.164C125.029 36.5 125.581 36.668 126.265 36.668C126.757 36.668 127.141 36.542 127.417 36.29C127.705 36.026 127.849 35.696 127.849 35.3C127.849 34.952 127.741 34.676 127.525 34.472C127.309 34.268 127.039 34.112 126.715 34.004C126.391 33.884 125.947 33.764 125.383 33.644C124.663 33.476 124.075 33.308 123.619 33.14C123.175 32.972 122.791 32.702 122.467 32.33C122.155 31.946 121.999 31.43 121.999 30.782C121.999 29.942 122.311 29.264 122.935 28.748C123.571 28.22 124.447 27.956 125.562 27.956ZM136.35 27.956C137.31 27.956 138.174 28.16 138.942 28.568C139.71 28.976 140.31 29.564 140.742 30.332C141.174 31.1 141.39 32 141.39 33.032C141.39 34.076 141.174 34.982 140.742 35.75C140.31 36.518 139.71 37.106 138.942 37.514C138.174 37.922 137.31 38.126 136.35 38.126C135.39 38.126 134.526 37.922 133.758 37.514C133.002 37.106 132.402 36.518 131.958 35.75C131.526 34.97 131.31 34.064 131.31 33.032C131.31 32 131.526 31.1 131.958 30.332C132.402 29.564 133.002 28.976 133.758 28.568C134.526 28.16 135.39 27.956 136.35 27.956ZM136.35 29.738C135.822 29.738 135.336 29.858 134.892 30.098C134.448 30.338 134.088 30.71 133.812 31.214C133.548 31.706 133.416 32.312 133.416 33.032C133.416 33.764 133.548 34.376 133.812 34.868C134.088 35.36 134.448 35.726 134.892 35.966C135.336 36.206 135.822 36.326 136.35 36.326C136.878 36.326 137.364 36.206 137.808 35.966C138.252 35.726 138.606 35.36 138.87 34.868C139.146 34.376 139.284 33.764 139.284 33.032C139.284 32.312 139.146 31.706 138.87 31.214C138.606 30.71 138.252 30.338 137.808 30.098C137.364 29.858 136.878 29.738 136.35 29.738ZM147.989 26.03C147.185 25.994 146.621 26.126 146.297 26.426C145.973 26.714 145.811 27.212 145.811 27.92V28.082H147.989V29.846H145.811V38H143.741V29.846H142.391V28.082H143.741V27.758C143.741 26.546 144.095 25.64 144.803 25.04C145.511 24.428 146.573 24.158 147.989 24.23V26.03ZM154.624 36.218V38H153.364C152.308 38 151.504 37.748 150.952 37.244C150.412 36.728 150.142 35.876 150.142 34.688V29.828H148.72V28.082H150.142V25.616H152.212V28.082H154.606V29.828H152.212V34.724C152.212 35.288 152.314 35.678 152.518 35.894C152.734 36.11 153.106 36.218 153.634 36.218H154.624ZM168.343 35.246H162.979L162.007 38H159.811L164.491 25.49H166.849L171.511 38H169.315L168.343 35.246ZM167.767 33.662L165.661 27.722L163.555 33.662H167.767ZM174.511 36.272H179.605V38H172.243V36.362L177.067 29.81H172.369V28.082H179.425V29.72L174.511 36.272ZM190.441 28.082V38H188.371V35.84C188.119 36.572 187.681 37.142 187.057 37.55C186.433 37.946 185.707 38.144 184.879 38.144C183.727 38.144 182.803 37.772 182.107 37.028C181.411 36.284 181.063 35.222 181.063 33.842V28.082H183.115V33.626C183.115 34.526 183.343 35.222 183.799 35.714C184.255 36.194 184.879 36.434 185.671 36.434C186.487 36.434 187.141 36.17 187.633 35.642C188.125 35.114 188.371 34.346 188.371 33.338V28.082H190.441ZM194.95 30.026C195.286 29.378 195.766 28.868 196.39 28.496C197.014 28.112 197.734 27.92 198.55 27.92V30.152H197.938C197.038 30.152 196.312 30.374 195.76 30.818C195.22 31.25 194.95 31.97 194.95 32.978V38H192.898V28.082H194.95V30.026ZM209.304 32.564C209.304 32.9 209.28 33.194 209.232 33.446H201.6C201.636 34.466 201.918 35.222 202.446 35.714C202.974 36.206 203.628 36.452 204.408 36.452C205.092 36.452 205.668 36.278 206.136 35.93C206.616 35.582 206.91 35.12 207.018 34.544H209.214C209.082 35.24 208.806 35.858 208.386 36.398C207.966 36.938 207.42 37.364 206.748 37.676C206.076 37.976 205.326 38.126 204.498 38.126C203.538 38.126 202.686 37.922 201.942 37.514C201.21 37.106 200.634 36.518 200.214 35.75C199.794 34.982 199.584 34.076 199.584 33.032C199.584 32 199.794 31.1 200.214 30.332C200.634 29.564 201.21 28.976 201.942 28.568C202.686 28.16 203.538 27.956 204.498 27.956C205.47 27.956 206.316 28.16 207.036 28.568C207.768 28.964 208.326 29.516 208.71 30.224C209.106 30.92 209.304 31.7 209.304 32.564ZM207.234 32.51C207.258 31.862 207.144 31.322 206.892 30.89C206.652 30.446 206.316 30.122 205.884 29.918C205.464 29.702 205.002 29.594 204.498 29.594C203.694 29.594 203.022 29.84 202.482 30.332C201.942 30.824 201.648 31.55 201.6 32.51H207.234Z" fill="#333333"/>
</svg>
