<svg width="49" height="37" viewBox="0 0 49 37" fill="none" xmlns="http://www.w3.org/2000/svg">
<circle cx="40.7174" cy="11.2609" r="3.57609" stroke="white" stroke-width="2.5"/>
<circle cx="8.54349" cy="11.2609" r="3.57609" stroke="white" stroke-width="2.5"/>
<path d="M28.689 5.16123C28.689 7.28839 26.9053 9.07246 24.6304 9.07246C22.3554 9.07246 20.5717 7.28839 20.5717 5.16123C20.5717 3.03408 22.3554 1.25 24.6304 1.25C26.9053 1.25 28.689 3.03408 28.689 5.16123Z" stroke="white" stroke-width="2.5"/>
<mask id="path-4-inside-1_3006_1973" fill="white">
<path fill-rule="evenodd" clip-rule="evenodd" d="M40.5566 17.3606C36.0254 17.3606 32.3522 21.0338 32.3522 25.5649V33.7824H48.7609V25.5649C48.7609 21.0338 45.0877 17.3606 40.5566 17.3606Z"/>
</mask>
<path d="M32.3522 33.7824H29.8522V36.2824H32.3522V33.7824ZM48.7609 33.7824V36.2824H51.2609V33.7824H48.7609ZM34.8522 25.5649C34.8522 22.4145 37.4062 19.8606 40.5566 19.8606V14.8606C34.6447 14.8606 29.8522 19.6531 29.8522 25.5649H34.8522ZM34.8522 33.7824V25.5649H29.8522V33.7824H34.8522ZM32.3522 36.2824H48.7609V31.2824H32.3522V36.2824ZM46.2609 25.5649V33.7824H51.2609V25.5649H46.2609ZM40.5566 19.8606C43.707 19.8606 46.2609 22.4145 46.2609 25.5649H51.2609C51.2609 19.6531 46.4684 14.8606 40.5566 14.8606V19.8606Z" fill="white" mask="url(#path-4-inside-1_3006_1973)"/>
<mask id="path-6-inside-2_3006_1973" fill="white">
<path fill-rule="evenodd" clip-rule="evenodd" d="M8.70435 17.3606C4.17321 17.3606 0.5 21.0338 0.5 25.5649V33.7824H16.9087V25.5649C16.9087 21.0338 13.2355 17.3606 8.70435 17.3606Z"/>
</mask>
<path d="M0.5 33.7824H-2V36.2824H0.5V33.7824ZM16.9087 33.7824V36.2824H19.4087V33.7824H16.9087ZM3 25.5649C3 22.4145 5.55393 19.8606 8.70435 19.8606V14.8606C2.7925 14.8606 -2 19.6531 -2 25.5649H3ZM3 33.7824V25.5649H-2V33.7824H3ZM0.5 36.2824H16.9087V31.2824H0.5V36.2824ZM14.4087 25.5649V33.7824H19.4087V25.5649H14.4087ZM8.70435 19.8606C11.8548 19.8606 14.4087 22.4145 14.4087 25.5649H19.4087C19.4087 19.6531 14.6162 14.8606 8.70435 14.8606V19.8606Z" fill="white" mask="url(#path-6-inside-2_3006_1973)"/>
<mask id="path-8-inside-3_3006_1973" fill="white">
<path fill-rule="evenodd" clip-rule="evenodd" d="M24.6306 11.261C19.0333 11.261 14.4958 15.7985 14.4958 21.3958V37H34.7654V21.3958C34.7654 15.7985 30.2279 11.261 24.6306 11.261Z"/>
</mask>
<path d="M14.4958 37H11.9958V39.5H14.4958V37ZM34.7654 37V39.5H37.2654V37H34.7654ZM16.9958 21.3958C16.9958 17.1792 20.414 13.761 24.6306 13.761V8.76099C17.6526 8.76099 11.9958 14.4178 11.9958 21.3958H16.9958ZM16.9958 37V21.3958H11.9958V37H16.9958ZM14.4958 39.5H34.7654V34.5H14.4958V39.5ZM32.2654 21.3958V37H37.2654V21.3958H32.2654ZM24.6306 13.761C28.8471 13.761 32.2654 17.1792 32.2654 21.3958H37.2654C37.2654 14.4178 31.6086 8.76099 24.6306 8.76099V13.761Z" fill="white" mask="url(#path-8-inside-3_3006_1973)"/>
</svg>
