<svg width="208" height="64" viewBox="0 0 208 64" fill="none" xmlns="http://www.w3.org/2000/svg">
<rect x="0.541992" width="207.388" height="64" rx="8" fill="#F0F0F0"/>
<path d="M45.3616 40.1493C45.6301 38.2533 45.5494 37.9749 47.2138 38.2821L47.6373 38.3141C48.9173 38.3637 50.5913 38.1397 51.5749 37.7517C53.6924 36.9181 54.9469 35.5261 52.8598 35.8917C48.0975 36.7253 47.7699 35.3557 47.7699 35.3557C52.7983 29.0237 54.9005 20.9853 53.0867 19.0173C48.1287 13.6517 39.571 16.1893 39.4192 16.2557L39.3736 16.2637C38.4323 16.0981 37.3792 15.9997 36.1966 15.9837C34.0416 15.9533 32.4068 16.4637 31.1659 17.2613C31.1659 17.2613 15.8835 11.9173 16.5946 23.9813C16.7464 26.5477 20.9294 43.3997 25.9178 38.3093C27.7412 36.4477 29.5039 34.8741 29.5039 34.8741C30.4231 35.3895 31.4753 35.6174 32.5251 35.5285L32.6098 35.4669C32.5834 35.6989 32.5938 35.9229 32.6441 36.1917C31.3593 37.4101 31.7364 37.6237 29.1667 38.0733C26.5674 38.5277 28.0944 39.3373 29.0916 39.5493C30.3005 39.8053 33.0972 40.1693 34.9869 37.9253L34.9118 38.1813C35.4152 38.5237 35.3816 40.6413 35.4535 42.1549C35.5254 43.6685 35.6453 45.0805 36.0081 45.9133C36.3708 46.7461 36.8007 48.8893 40.1774 48.2765C42.9997 47.7629 45.1579 47.0245 45.3552 40.1525" fill="#231F20"/>
<path d="M45.3616 40.1493C45.6301 38.2533 45.5494 37.9749 47.2138 38.2821L47.6373 38.3141C48.9173 38.3637 50.5913 38.1397 51.5749 37.7517C53.6924 36.9181 54.9469 35.5261 52.8598 35.8917C48.0975 36.7253 47.7699 35.3557 47.7699 35.3557C52.7983 29.0237 54.9005 20.9853 53.0867 19.0173C48.1287 13.6517 39.571 16.1893 39.4192 16.2557L39.3736 16.2637C38.4323 16.0981 37.3792 15.9997 36.1966 15.9837C34.0416 15.9533 32.4068 16.4637 31.1659 17.2613C31.1659 17.2613 15.8835 11.9173 16.5946 23.9813C16.7464 26.5477 20.9294 43.3997 25.9178 38.3093C27.7412 36.4477 29.5039 34.8741 29.5039 34.8741C30.4231 35.3895 31.4753 35.6174 32.5251 35.5285L32.6098 35.4669C32.5834 35.6989 32.5938 35.9229 32.6441 36.1917C31.3593 37.4101 31.7364 37.6237 29.1667 38.0733C26.5674 38.5277 28.0944 39.3373 29.0916 39.5493C30.3005 39.8053 33.0972 40.1693 34.9869 37.9253L34.9118 38.1813C35.4152 38.5237 35.3816 40.6413 35.4535 42.1549C35.5254 43.6685 35.6453 45.0805 36.0081 45.9133C36.3708 46.7461 36.8007 48.8893 40.1774 48.2765C42.9997 47.7629 45.1579 47.0245 45.3552 40.1525" stroke="#231F20" stroke-width="4.108"/>
<path d="M52.8589 35.8908C48.0966 36.7244 47.769 35.3548 47.769 35.3548C52.7974 29.022 54.8996 20.9836 53.0858 19.0164C48.1366 13.6508 39.5709 16.1892 39.419 16.2556L39.3727 16.2636C38.4314 16.098 37.3783 15.9996 36.1949 15.9836C34.0399 15.954 32.4051 16.4636 31.165 17.2612C31.165 17.2612 15.8818 11.9172 16.5929 23.9812C16.7447 26.5476 20.9269 43.4004 25.9161 38.3092C27.7395 36.4476 29.5014 34.874 29.5014 34.874C30.4205 35.3894 31.4728 35.6173 32.5225 35.5284L32.608 35.4668C32.5817 35.6988 32.5937 35.9228 32.6424 36.1916C31.3575 37.41 31.7347 37.6236 29.1666 38.0732C26.5665 38.5276 28.0943 39.3372 29.0915 39.5492C30.3004 39.8052 33.0971 40.1692 34.9868 37.9252L34.9117 38.1812C35.4151 38.5236 35.769 40.4076 35.7107 42.1172C35.6524 43.8268 35.6116 44.9972 36.0088 45.914C36.4059 46.8308 36.8014 48.89 40.1797 48.2772C43.0019 47.7636 44.465 46.434 44.6679 44.2148C44.8118 42.6372 45.1394 42.8708 45.1593 41.4604L45.4214 40.7932C45.7235 38.6548 45.4694 37.9652 47.2081 38.286L47.6316 38.318C48.9116 38.3676 50.5864 38.1436 51.5692 37.7556C53.6867 36.922 54.9412 35.53 52.8541 35.8956L52.8589 35.8908Z" fill="#417BA2"/>
<path d="M31.0946 25.482C31.0675 25.646 31.4486 26.082 31.9448 26.1412C32.441 26.2004 32.8637 25.858 32.8917 25.6948C32.9196 25.5316 32.5385 25.3508 32.0415 25.2916C31.5445 25.2324 31.121 25.3188 31.0946 25.482Z" fill="white" stroke="white" stroke-width="0.456"/>
<path d="M46.1893 25.1483C46.2165 25.3123 45.8362 25.7483 45.3392 25.8075C44.8422 25.8667 44.4187 25.5243 44.3915 25.3595C44.3643 25.1947 44.7455 25.0155 45.2417 24.9563C45.7379 24.8971 46.1606 24.9827 46.1885 25.1467L46.1893 25.1483Z" fill="white" stroke="white" stroke-width="0.228"/>
<path d="M35.1985 37.1173C35.0675 41.0957 35.2305 45.1029 35.69 46.0773C36.1494 47.0517 37.1314 48.9453 40.5098 48.3309C43.332 47.8173 44.3587 46.8237 44.8038 44.6301C45.1234 43.0165 45.765 38.5341 45.8457 37.6165M31.149 17.1701C31.149 17.1701 15.8474 11.8661 16.5666 23.9357C16.7264 26.5021 20.9006 43.3549 25.8913 38.2557C27.7148 36.3941 29.3632 34.9341 29.3632 34.9341M39.4191 16.2021C38.8893 16.3429 47.9264 13.3989 53.0619 18.9677C54.8757 20.9357 52.7742 28.9741 47.7451 35.3069" stroke="white" stroke-width="1.369" stroke-linecap="round" stroke-linejoin="round"/>
<path d="M47.7371 35.3061C47.7371 35.3061 48.0567 36.6741 52.8269 35.8405C54.914 35.4749 53.6579 36.8669 51.5405 37.7013C49.8034 38.3853 45.9089 38.5605 45.8457 37.6157C45.6819 35.1757 47.8953 35.9173 47.7355 35.3061C47.5916 34.7557 46.6008 34.2157 45.9456 32.8685C45.3743 31.6925 38.1071 22.6749 47.9608 24.0141C48.322 23.9501 45.3903 16.0589 36.167 15.9309C26.9437 15.8029 27.2497 25.5549 27.2497 25.5549" stroke="white" stroke-width="1.369" stroke-linecap="round" stroke-linejoin="bevel"/>
<path d="M32.6175 36.1404C31.3311 37.3588 31.7098 37.5724 29.1401 38.022C26.54 38.478 28.0678 39.286 29.065 39.498C30.274 39.754 33.0706 40.118 34.9603 37.8724C35.5356 37.1884 34.9571 36.0964 34.1669 35.8196C33.7849 35.6852 33.2743 35.5172 32.6167 36.1396L32.6175 36.1404Z" stroke="white" stroke-width="1.369" stroke-linejoin="round"/>
<path d="M32.5338 36.1198C32.4043 35.403 32.811 34.5518 33.2473 33.5534C33.9025 32.0574 35.4143 30.5598 34.2061 25.8118C33.3048 22.2734 27.2569 25.0758 27.2545 25.5558C27.2521 26.0358 27.5278 27.9878 27.153 30.2598C26.664 33.2262 29.3768 35.7342 32.5002 35.4782" stroke="white" stroke-width="1.369" stroke-linecap="round" stroke-linejoin="round"/>
<path d="M47.9633 24.0142C48.0448 25.2998 47.6373 26.1742 47.5853 27.5438C47.5094 29.5326 48.7024 31.8078 46.9045 34.0878" stroke="white" stroke-width="1.369" stroke-linecap="round" stroke-linejoin="round"/>
<path d="M69.2242 33.068V38H67.1722V25.292H71.4922C72.9562 25.292 74.0542 25.64 74.7862 26.336C75.5302 27.032 75.9022 27.986 75.9022 29.198C75.9022 30.398 75.5242 31.346 74.7682 32.042C74.0122 32.726 72.9202 33.068 71.4922 33.068H69.2242ZM71.2762 31.394C72.9682 31.394 73.8142 30.662 73.8142 29.198C73.8142 28.478 73.6102 27.932 73.2022 27.56C72.8062 27.176 72.1642 26.984 71.2762 26.984H69.2242V31.394H71.2762ZM82.2375 27.956C83.1975 27.956 84.0615 28.16 84.8295 28.568C85.5975 28.976 86.1975 29.564 86.6295 30.332C87.0615 31.1 87.2775 32 87.2775 33.032C87.2775 34.076 87.0615 34.982 86.6295 35.75C86.1975 36.518 85.5975 37.106 84.8295 37.514C84.0615 37.922 83.1975 38.126 82.2375 38.126C81.2775 38.126 80.4135 37.922 79.6455 37.514C78.8895 37.106 78.2895 36.518 77.8455 35.75C77.4135 34.97 77.1975 34.064 77.1975 33.032C77.1975 32 77.4135 31.1 77.8455 30.332C78.2895 29.564 78.8895 28.976 79.6455 28.568C80.4135 28.16 81.2775 27.956 82.2375 27.956ZM82.2375 29.738C81.7095 29.738 81.2235 29.858 80.7795 30.098C80.3355 30.338 79.9755 30.71 79.6995 31.214C79.4355 31.706 79.3035 32.312 79.3035 33.032C79.3035 33.764 79.4355 34.376 79.6995 34.868C79.9755 35.36 80.3355 35.726 80.7795 35.966C81.2235 36.206 81.7095 36.326 82.2375 36.326C82.7655 36.326 83.2515 36.206 83.6955 35.966C84.1395 35.726 84.4935 35.36 84.7575 34.868C85.0335 34.376 85.1715 33.764 85.1715 33.032C85.1715 32.312 85.0335 31.706 84.7575 31.214C84.4935 30.71 84.1395 30.338 83.6955 30.098C83.2515 29.858 82.7655 29.738 82.2375 29.738ZM92.5083 27.956C93.6723 27.956 94.6023 28.256 95.2983 28.856C96.0063 29.444 96.4383 30.236 96.5943 31.232H94.6503C94.5663 30.692 94.3323 30.26 93.9483 29.936C93.5763 29.6 93.0783 29.432 92.4543 29.432C91.9383 29.432 91.5363 29.558 91.2483 29.81C90.9723 30.05 90.8343 30.38 90.8343 30.8C90.8343 31.112 90.9363 31.364 91.1403 31.556C91.3443 31.748 91.5963 31.898 91.8963 32.006C92.2083 32.114 92.6463 32.234 93.2103 32.366C93.9543 32.534 94.5543 32.708 95.0103 32.888C95.4783 33.068 95.8743 33.356 96.1983 33.752C96.5343 34.136 96.7023 34.664 96.7023 35.336C96.7023 36.164 96.3843 36.836 95.7483 37.352C95.1243 37.868 94.2783 38.126 93.2103 38.126C91.9743 38.126 90.9723 37.838 90.2043 37.262C89.4483 36.686 88.9923 35.882 88.8363 34.85H90.8343C90.8943 35.39 91.1343 35.828 91.5543 36.164C91.9743 36.5 92.5263 36.668 93.2103 36.668C93.7023 36.668 94.0863 36.542 94.3623 36.29C94.6503 36.026 94.7943 35.696 94.7943 35.3C94.7943 34.952 94.6863 34.676 94.4703 34.472C94.2543 34.268 93.9843 34.112 93.6603 34.004C93.3363 33.884 92.8923 33.764 92.3283 33.644C91.6083 33.476 91.0203 33.308 90.5643 33.14C90.1203 32.972 89.7363 32.702 89.4123 32.33C89.1003 31.946 88.9443 31.43 88.9443 30.782C88.9443 29.942 89.2563 29.264 89.8803 28.748C90.5163 28.22 91.3923 27.956 92.5083 27.956ZM103.746 36.218V38H102.486C101.43 38 100.626 37.748 100.074 37.244C99.5341 36.728 99.2641 35.876 99.2641 34.688V29.828H97.8421V28.082H99.2641V25.616H101.334V28.082H103.728V29.828H101.334V34.724C101.334 35.288 101.436 35.678 101.64 35.894C101.856 36.11 102.228 36.218 102.756 36.218H103.746ZM109.646 27.956C110.546 27.956 111.314 28.178 111.95 28.622C112.586 29.066 113.036 29.654 113.3 30.386V28.082H115.352V38.108C115.352 39.032 115.16 39.848 114.776 40.556C114.404 41.276 113.864 41.84 113.156 42.248C112.448 42.656 111.608 42.86 110.636 42.86C109.244 42.86 108.116 42.53 107.252 41.87C106.4 41.21 105.866 40.316 105.65 39.188H107.684C107.852 39.776 108.176 40.232 108.656 40.556C109.136 40.892 109.748 41.06 110.492 41.06C111.308 41.06 111.98 40.808 112.508 40.304C113.036 39.8 113.3 39.068 113.3 38.108V35.696C113.036 36.428 112.586 37.016 111.95 37.46C111.314 37.904 110.546 38.126 109.646 38.126C108.782 38.126 108.008 37.922 107.324 37.514C106.652 37.106 106.124 36.518 105.74 35.75C105.356 34.982 105.164 34.076 105.164 33.032C105.164 32 105.356 31.1 105.74 30.332C106.124 29.564 106.652 28.976 107.324 28.568C108.008 28.16 108.782 27.956 109.646 27.956ZM110.276 29.756C109.364 29.756 108.632 30.05 108.08 30.638C107.54 31.214 107.27 32.012 107.27 33.032C107.27 34.052 107.54 34.856 108.08 35.444C108.632 36.02 109.364 36.308 110.276 36.308C110.852 36.308 111.368 36.176 111.824 35.912C112.28 35.636 112.64 35.252 112.904 34.76C113.168 34.268 113.3 33.692 113.3 33.032C113.3 32.384 113.168 31.814 112.904 31.322C112.64 30.818 112.28 30.434 111.824 30.17C111.368 29.894 110.852 29.756 110.276 29.756ZM119.867 30.026C120.203 29.378 120.683 28.868 121.307 28.496C121.931 28.112 122.651 27.92 123.467 27.92V30.152H122.855C121.955 30.152 121.229 30.374 120.677 30.818C120.137 31.25 119.867 31.97 119.867 32.978V38H117.815V28.082H119.867V30.026ZM134.22 32.564C134.22 32.9 134.196 33.194 134.148 33.446H126.516C126.552 34.466 126.834 35.222 127.362 35.714C127.89 36.206 128.544 36.452 129.324 36.452C130.008 36.452 130.584 36.278 131.052 35.93C131.532 35.582 131.826 35.12 131.934 34.544H134.13C133.998 35.24 133.722 35.858 133.302 36.398C132.882 36.938 132.336 37.364 131.664 37.676C130.992 37.976 130.242 38.126 129.414 38.126C128.454 38.126 127.602 37.922 126.858 37.514C126.126 37.106 125.55 36.518 125.13 35.75C124.71 34.982 124.5 34.076 124.5 33.032C124.5 32 124.71 31.1 125.13 30.332C125.55 29.564 126.126 28.976 126.858 28.568C127.602 28.16 128.454 27.956 129.414 27.956C130.386 27.956 131.232 28.16 131.952 28.568C132.684 28.964 133.242 29.516 133.626 30.224C134.022 30.92 134.22 31.7 134.22 32.564ZM132.15 32.51C132.174 31.862 132.06 31.322 131.808 30.89C131.568 30.446 131.232 30.122 130.8 29.918C130.38 29.702 129.918 29.594 129.414 29.594C128.61 29.594 127.938 29.84 127.398 30.332C126.858 30.824 126.564 31.55 126.516 32.51H132.15ZM145.417 32.564C145.417 32.9 145.393 33.194 145.345 33.446H137.713C137.749 34.466 138.031 35.222 138.559 35.714C139.087 36.206 139.741 36.452 140.521 36.452C141.205 36.452 141.781 36.278 142.249 35.93C142.729 35.582 143.023 35.12 143.131 34.544H145.327C145.195 35.24 144.919 35.858 144.499 36.398C144.079 36.938 143.533 37.364 142.861 37.676C142.189 37.976 141.439 38.126 140.611 38.126C139.651 38.126 138.799 37.922 138.055 37.514C137.323 37.106 136.747 36.518 136.327 35.75C135.907 34.982 135.697 34.076 135.697 33.032C135.697 32 135.907 31.1 136.327 30.332C136.747 29.564 137.323 28.976 138.055 28.568C138.799 28.16 139.651 27.956 140.611 27.956C141.583 27.956 142.429 28.16 143.149 28.568C143.881 28.964 144.439 29.516 144.823 30.224C145.219 30.92 145.417 31.7 145.417 32.564ZM143.347 32.51C143.371 31.862 143.257 31.322 143.005 30.89C142.765 30.446 142.429 30.122 141.997 29.918C141.577 29.702 141.115 29.594 140.611 29.594C139.807 29.594 139.135 29.84 138.595 30.332C138.055 30.824 137.761 31.55 137.713 32.51H143.347ZM155.751 34.616C155.751 35.24 155.601 35.822 155.301 36.362C155.001 36.89 154.545 37.316 153.933 37.64C153.321 37.964 152.571 38.126 151.683 38.126C150.819 38.126 150.045 37.976 149.361 37.676C148.677 37.364 148.131 36.932 147.723 36.38C147.315 35.828 147.081 35.192 147.021 34.472H149.217C149.277 35.024 149.511 35.498 149.919 35.894C150.339 36.29 150.897 36.488 151.593 36.488C152.217 36.488 152.697 36.32 153.033 35.984C153.381 35.648 153.555 35.216 153.555 34.688C153.555 34.232 153.429 33.86 153.177 33.572C152.925 33.272 152.613 33.038 152.241 32.87C151.869 32.702 151.359 32.51 150.711 32.294C149.919 32.042 149.271 31.79 148.767 31.538C148.275 31.286 147.855 30.92 147.507 30.44C147.159 29.96 146.985 29.33 146.985 28.55C146.985 27.866 147.153 27.266 147.489 26.75C147.825 26.234 148.305 25.838 148.929 25.562C149.553 25.274 150.273 25.13 151.089 25.13C152.385 25.13 153.411 25.442 154.167 26.066C154.935 26.69 155.373 27.506 155.481 28.514H153.267C153.183 28.034 152.955 27.626 152.583 27.29C152.223 26.942 151.725 26.768 151.089 26.768C150.513 26.768 150.051 26.918 149.703 27.218C149.355 27.506 149.181 27.926 149.181 28.478C149.181 28.91 149.301 29.27 149.541 29.558C149.781 29.834 150.081 30.056 150.441 30.224C150.813 30.38 151.317 30.566 151.953 30.782C152.757 31.034 153.411 31.292 153.915 31.556C154.431 31.808 154.863 32.18 155.211 32.672C155.571 33.164 155.751 33.812 155.751 34.616ZM167.687 40.394L165.419 37.928C164.867 38.072 164.291 38.144 163.691 38.144C162.503 38.144 161.429 37.868 160.469 37.316C159.521 36.752 158.771 35.978 158.219 34.994C157.667 33.998 157.391 32.876 157.391 31.628C157.391 30.38 157.667 29.264 158.219 28.28C158.771 27.284 159.521 26.51 160.469 25.958C161.429 25.406 162.503 25.13 163.691 25.13C164.867 25.13 165.929 25.406 166.877 25.958C167.837 26.51 168.587 27.284 169.127 28.28C169.679 29.264 169.955 30.38 169.955 31.628C169.955 32.828 169.697 33.914 169.181 34.886C168.665 35.858 167.963 36.626 167.075 37.19L170.225 40.394H167.687ZM159.497 31.628C159.497 32.552 159.671 33.362 160.019 34.058C160.379 34.754 160.877 35.288 161.513 35.66C162.149 36.032 162.875 36.218 163.691 36.218C164.495 36.218 165.209 36.032 165.833 35.66C166.469 35.288 166.961 34.754 167.309 34.058C167.669 33.362 167.849 32.552 167.849 31.628C167.849 30.704 167.669 29.894 167.309 29.198C166.961 28.502 166.469 27.968 165.833 27.596C165.209 27.224 164.495 27.038 163.691 27.038C162.875 27.038 162.149 27.224 161.513 27.596C160.877 27.968 160.379 28.502 160.019 29.198C159.671 29.894 159.497 30.704 159.497 31.628ZM174.078 36.398H178.47V38H172.026V25.292H174.078V36.398Z" fill="#333333"/>
</svg>
