<svg width="50" height="50" viewBox="0 0 50 50" fill="none" xmlns="http://www.w3.org/2000/svg">
<path d="M20.2979 28.6312C19.1487 28.9795 17.9296 29.1667 16.6668 29.1667C9.76319 29.1667 4.16675 23.5703 4.16675 16.6667C4.16675 14.737 4.60405 12.9093 5.38496 11.2775L14.4787 20.3713L20.3713 14.4787L11.2775 5.38496C12.9093 4.60405 14.737 4.16675 16.6668 4.16675C23.5703 4.16675 29.1668 9.76319 29.1668 16.6667C29.1668 18.5009 28.7717 20.2428 28.0621 21.812L42.8873 36.6373C44.5145 38.2645 44.5145 40.9027 42.8873 42.5299L41.4882 43.929C39.861 45.5562 37.2228 45.5562 35.5956 43.929L20.2979 28.6312Z" stroke="white" stroke-width="2.96528" stroke-linecap="square"/>
</svg>
